<svg width="1054" height="534" xmlns="http://www.w3.org/2000/svg" xmlns:xlink="http://www.w3.org/1999/xlink" overflow="hidden"><defs><clipPath id="clip0"><rect x="113" y="169" width="1054" height="534"/></clipPath></defs><g clip-path="url(#clip0)" transform="translate(-113 -169)"><path d="M114.5 183.501C114.5 176.873 119.873 171.5 126.501 171.5L1154.5 171.5C1161.13 171.5 1166.5 176.873 1166.5 183.501L1166.5 231.499C1166.5 238.127 1161.13 243.5 1154.5 243.5L126.501 243.5C119.873 243.5 114.5 238.127 114.5 231.499Z" stroke="#2F528F" stroke-width="1.33333" stroke-miterlimit="8" fill="#4472C4" fill-rule="evenodd"/><text fill="#FFFFFF" font-family="Calibri,Calibri_MSFontService,sans-serif" font-weight="400" font-size="24" transform="translate(545.917 215)">Optimizer variables</text><path d="M114.5 416.667C114.5 409.947 119.947 404.5 126.667 404.5L333.333 404.5C340.053 404.5 345.5 409.947 345.5 416.667L345.5 465.333C345.5 472.053 340.053 477.5 333.333 477.5L126.667 477.5C119.947 477.5 114.5 472.053 114.5 465.333Z" stroke="#AE5A21" stroke-width="1.33333" stroke-miterlimit="8" fill="#ED7D31" fill-rule="evenodd"/><text fill="#FFFFFF" font-family="Calibri,Calibri_MSFontService,sans-serif" font-weight="400" font-size="19" transform="translate(158.752 446)">op::Vector (rank 0)</text><path d="M371.5 416.667C371.5 409.947 376.947 404.5 383.667 404.5L590.333 404.5C597.053 404.5 602.5 409.947 602.5 416.667L602.5 465.333C602.5 472.053 597.053 477.5 590.333 477.5L383.667 477.5C376.947 477.5 371.5 472.053 371.5 465.333Z" stroke="#AE5A21" stroke-width="1.33333" stroke-miterlimit="8" fill="#ED7D31" fill-rule="evenodd"/><text fill="#FFFFFF" font-family="Calibri,Calibri_MSFontService,sans-serif" font-weight="400" font-size="19" transform="translate(415.607 446)">op::Vector (rank 1)</text><path d="M640.5 416.667C640.5 409.947 645.947 404.5 652.667 404.5L859.333 404.5C866.053 404.5 871.5 409.947 871.5 416.667L871.5 465.333C871.5 472.053 866.053 477.5 859.333 477.5L652.667 477.5C645.947 477.5 640.5 472.053 640.5 465.333Z" stroke="#AE5A21" stroke-width="1.33333" stroke-miterlimit="8" fill="#ED7D31" fill-rule="evenodd"/><text fill="#FFFFFF" font-family="Calibri,Calibri_MSFontService,sans-serif" font-weight="400" font-size="19" transform="translate(684.422 446)">op::Vector (rank 2)</text><path d="M935.5 416.667C935.5 409.947 940.947 404.5 947.667 404.5L1154.33 404.5C1161.05 404.5 1166.5 409.947 1166.5 416.667L1166.5 465.333C1166.5 472.053 1161.05 477.5 1154.33 477.5L947.667 477.5C940.947 477.5 935.5 472.053 935.5 465.333Z" stroke="#AE5A21" stroke-width="1.33333" stroke-miterlimit="8" fill="#ED7D31" fill-rule="evenodd"/><text fill="#FFFFFF" font-family="Calibri,Calibri_MSFontService,sans-serif" font-weight="400" font-size="19" transform="translate(978.317 446)">op::Vector (rank N)<tspan fill="#000000" font-size="19" x="-83.907" y="-1">…</tspan></text><path d="M114.5 299.667C114.5 292.947 119.947 287.5 126.667 287.5L333.333 287.5C340.053 287.5 345.5 292.947 345.5 299.667L345.5 348.333C345.5 355.053 340.053 360.5 333.333 360.5L126.667 360.5C119.947 360.5 114.5 355.053 114.5 348.333Z" stroke="#507E32" stroke-width="1.33333" stroke-miterlimit="8" fill="#70AD47" fill-rule="evenodd"/><text fill="#FFFFFF" font-family="Calibri,Calibri_MSFontService,sans-serif" font-weight="400" font-size="19" transform="translate(134.919 329)">Owned<tspan font-size="19" x="58.8333" y="0">variab</tspan><tspan font-size="19" x="105.727" y="0">les (rank 0)</tspan></text><path d="M371.5 299.5C371.5 292.873 376.873 287.5 383.5 287.5L590.5 287.5C597.127 287.5 602.5 292.873 602.5 299.5L602.5 347.5C602.5 354.127 597.127 359.5 590.5 359.5L383.5 359.5C376.873 359.5 371.5 354.127 371.5 347.5Z" stroke="#507E32" stroke-width="1.33333" stroke-miterlimit="8" fill="#70AD47" fill-rule="evenodd"/><text fill="#FFFFFF" font-family="Calibri,Calibri_MSFontService,sans-serif" font-weight="400" font-size="19" transform="translate(391.773 329)">Owned<tspan font-size="19" x="58.8333" y="0">variab</tspan><tspan font-size="19" x="105.727" y="0">les (rank 1)</tspan></text><path d="M640.5 299.5C640.5 292.873 645.873 287.5 652.5 287.5L859.5 287.5C866.127 287.5 871.5 292.873 871.5 299.5L871.5 347.5C871.5 354.127 866.127 359.5 859.5 359.5L652.5 359.5C645.873 359.5 640.5 354.127 640.5 347.5Z" stroke="#507E32" stroke-width="1.33333" stroke-miterlimit="8" fill="#70AD47" fill-rule="evenodd"/><text fill="#FFFFFF" font-family="Calibri,Calibri_MSFontService,sans-serif" font-weight="400" font-size="19" transform="translate(660.589 329)">Owned<tspan font-size="19" x="58.8333" y="0">variab</tspan><tspan font-size="19" x="105.727" y="0">les (rank 2)</tspan></text><path d="M935.5 299.5C935.5 292.873 940.873 287.5 947.5 287.5L1154.5 287.5C1161.13 287.5 1166.5 292.873 1166.5 299.5L1166.5 347.5C1166.5 354.127 1161.13 359.5 1154.5 359.5L947.5 359.5C940.873 359.5 935.5 354.127 935.5 347.5Z" stroke="#507E32" stroke-width="1.33333" stroke-miterlimit="8" fill="#70AD47" fill-rule="evenodd"/><text fill="#FFFFFF" font-family="Calibri,Calibri_MSFontService,sans-serif" font-weight="400" font-size="19" transform="translate(954.484 329)">Owned<tspan font-size="19" x="58.8333" y="0">variab</tspan><tspan font-size="19" x="105.727" y="0">les (rank N)</tspan><tspan fill="#000000" font-size="19" x="-60.0737" y="0">…</tspan></text><path d="M0.0355641-0.331431 403.816 42.9961 403.744 43.659-0.0355641 0.331431ZM402.88 39.208 410.408 44.0387 402.027 47.1624Z" fill="#4472C4" transform="matrix(-1 0 0 1 640.908 243.5)"/><path d="M0.09066-0.320768 147.229 41.2655 147.047 41.907-0.09066 0.320768ZM146.943 37.3744 153.553 43.3995 144.767 45.0728Z" fill="#4472C4" transform="matrix(-1 0 0 1 640.053 243.5)"/><path d="M640.617 243.188 749.641 284.238 749.406 284.862 640.383 243.812ZM749.685 280.337 755.762 286.899 746.866 287.824Z" fill="#4472C4"/><path d="M640.535 243.169 1044.31 285.867 1044.24 286.53 640.465 243.832ZM1043.37 282.08 1050.91 286.899 1042.53 290.036Z" fill="#4472C4"/><path d="M230.833 360.5 230.833 397.872 230.167 397.872 230.167 360.5ZM234.5 396.539 230.5 404.539 226.5 396.539Z" fill="#4472C4"/><path d="M230.556 360.172 480.84 403.084 480.727 403.741 230.444 360.829ZM480.146 399.245 487.355 404.539 478.794 407.13Z" fill="#4472C4"/><path d="M486.833 359.5 486.833 398.483 486.167 398.483 486.167 359.5ZM490.5 397.149 486.5 405.149 482.5 397.149Z" fill="#4472C4"/><path d="M758.833 360.5 758.833 397.872 758.167 397.872 758.167 360.5ZM762.5 396.539 758.5 404.539 754.5 396.539Z" fill="#4472C4"/><path d="M1050.83 360.5 1050.83 397.872 1050.17 397.872 1050.17 360.5ZM1054.5 396.539 1050.5 404.539 1046.5 396.539Z" fill="#4472C4"/><path d="M486.555 359.171 748.793 402.756 748.684 403.414 486.445 359.829ZM748.079 398.921 755.315 404.178 746.768 406.812Z" fill="#4472C4"/><path d="M486.526 359.168 1043.84 403.319 1043.79 403.984 486.474 359.832ZM1042.8 399.559 1050.46 404.178 1042.17 407.534Z" fill="#4472C4"/><path d="M114.5 534.5C114.5 527.873 119.873 522.5 126.5 522.5L333.5 522.5C340.127 522.5 345.5 527.873 345.5 534.5L345.5 582.5C345.5 589.127 340.127 594.5 333.5 594.5L126.5 594.5C119.873 594.5 114.5 589.127 114.5 582.5Z" stroke="#41719C" stroke-width="1.33333" stroke-miterlimit="8" fill="#5B9BD5" fill-rule="evenodd"/><text fill="#FFFFFF" font-family="Calibri,Calibri_MSFontService,sans-serif" font-weight="400" font-size="19" transform="translate(141.222 564)">Functional Eval (rank 0)</text><path d="M371.5 534.5C371.5 527.873 376.873 522.5 383.5 522.5L590.5 522.5C597.127 522.5 602.5 527.873 602.5 534.5L602.5 582.5C602.5 589.127 597.127 594.5 590.5 594.5L383.5 594.5C376.873 594.5 371.5 589.127 371.5 582.5Z" stroke="#41719C" stroke-width="1.33333" stroke-miterlimit="8" fill="#5B9BD5" fill-rule="evenodd"/><text fill="#FFFFFF" font-family="Calibri,Calibri_MSFontService,sans-serif" font-weight="400" font-size="19" transform="translate(398.077 564)">Functional Eval (rank 1)</text><path d="M640.5 534.5C640.5 527.873 645.873 522.5 652.5 522.5L859.5 522.5C866.127 522.5 871.5 527.873 871.5 534.5L871.5 582.5C871.5 589.127 866.127 594.5 859.5 594.5L652.5 594.5C645.873 594.5 640.5 589.127 640.5 582.5Z" stroke="#41719C" stroke-width="1.33333" stroke-miterlimit="8" fill="#5B9BD5" fill-rule="evenodd"/><text fill="#FFFFFF" font-family="Calibri,Calibri_MSFontService,sans-serif" font-weight="400" font-size="19" transform="translate(666.892 564)">Functional Eval (rank 2)</text><path d="M935.5 534.5C935.5 527.873 940.873 522.5 947.5 522.5L1154.5 522.5C1161.13 522.5 1166.5 527.873 1166.5 534.5L1166.5 582.5C1166.5 589.127 1161.13 594.5 1154.5 594.5L947.5 594.5C940.873 594.5 935.5 589.127 935.5 582.5Z" stroke="#41719C" stroke-width="1.33333" stroke-miterlimit="8" fill="#5B9BD5" fill-rule="evenodd"/><text fill="#FFFFFF" font-family="Calibri,Calibri_MSFontService,sans-serif" font-weight="400" font-size="19" transform="translate(960.787 564)">Functional Eval (rank N)<tspan fill="#000000" font-size="19" x="-66.377" y="-1">…</tspan></text><path d="M230.833 477.5 230.833 514.872 230.167 514.872 230.167 477.5ZM234.5 513.539 230.5 521.539 226.5 513.539Z" fill="#4472C4"/><path d="M486.833 476.5 486.833 515.483 486.167 515.483 486.167 476.5ZM490.5 514.149 486.5 522.149 482.5 514.149Z" fill="#4472C4"/><path d="M758.833 477.5 758.833 514.872 758.167 514.872 758.167 477.5ZM762.5 513.539 758.5 521.539 754.5 513.539Z" fill="#4472C4"/><path d="M1050.83 477.5 1050.83 514.872 1050.17 514.872 1050.17 477.5ZM1054.5 513.539 1050.5 521.539 1046.5 513.539Z" fill="#4472C4"/><path d="M114.5 641.667C114.5 634.947 119.947 629.5 126.666 629.5L1154.33 629.5C1161.05 629.5 1166.5 634.947 1166.5 641.667L1166.5 690.334C1166.5 697.053 1161.05 702.5 1154.33 702.5L126.666 702.5C119.947 702.5 114.5 697.053 114.5 690.334Z" stroke="#BC8C00" stroke-width="1.33333" stroke-miterlimit="8" fill="#FFC000" fill-rule="evenodd"/><text fill="#FFFFFF" font-family="Calibri,Calibri_MSFontService,sans-serif" font-weight="400" font-size="24" transform="translate(481.863 673)">Global Optimizer Functional Eval</text><path d="M230.528 594.168 634.293 628.439 634.237 629.103 230.472 594.832ZM633.274 624.672 640.907 629.335 632.598 632.644Z" fill="#4472C4"/><path d="M486.574 594.175 633.625 627.535 633.478 628.185 486.426 594.825ZM633.136 623.664 640.053 629.335 631.366 631.466Z" fill="#4472C4"/><path d="M0.0964328-0.31908 108.977 32.587 108.784 33.2252-0.0964328 0.31908ZM108.762 28.6914 115.262 34.8348 106.447 36.3493Z" fill="#4472C4" transform="matrix(-1 0 0 1 755.762 594.5)"/><path d="M0.0281914-0.332139 403.794 33.9389 403.738 34.6031-0.0281914 0.332139ZM402.775 30.1725 410.408 34.8348 402.098 38.1438Z" fill="#4472C4" transform="matrix(-1 0 0 1 1050.91 594.5)"/></g></svg>