<svg width="1096" height="716" xmlns="http://www.w3.org/2000/svg" xmlns:xlink="http://www.w3.org/1999/xlink" overflow="hidden"><defs><clipPath id="clip0"><rect x="92" y="169" width="1096" height="716"/></clipPath></defs><g clip-path="url(#clip0)" transform="translate(-92 -169)"><path d="M114.5 183.501C114.5 176.873 119.873 171.5 126.501 171.5L1154.5 171.5C1161.13 171.5 1166.5 176.873 1166.5 183.501L1166.5 231.499C1166.5 238.127 1161.13 243.5 1154.5 243.5L126.501 243.5C119.873 243.5 114.5 238.127 114.5 231.499Z" stroke="#2F528F" stroke-width="1.33333" stroke-miterlimit="8" fill="#4472C4" fill-rule="evenodd"/><text fill="#FFFFFF" font-family="Calibri,Calibri_MSFontService,sans-serif" font-weight="400" font-size="24" transform="translate(127.479 215)">Optimizer variables</text><rect x="335.5" y="189.5" width="804" height="36" stroke="#BC8C00" stroke-width="1.33333" stroke-miterlimit="8" fill="#FFC000"/><text fill="#FFFFFF" font-family="Cambria Math,Cambria Math_MSFontService,sans-serif" font-weight="400" font-size="24" transform="translate(664.692 216)">0<tspan font-size="24" x="13.3334" y="0"> </tspan><tspan font-size="24" x="18.6667" y="0">1</tspan><tspan font-size="24" x="32.0001" y="0"> </tspan><tspan font-size="24" x="37.3334" y="0">3</tspan><tspan font-size="24" x="50.6667" y="0"> </tspan><tspan font-size="24" x="56.0001" y="0">4</tspan><tspan font-size="24" x="69.3334" y="0"> </tspan><tspan font-size="24" x="74.6667" y="0">5</tspan><tspan font-size="24" x="88.0001" y="0"> </tspan><tspan font-size="24" x="93.3334" y="0">6</tspan><tspan font-size="24" x="106.667" y="0"> </tspan><tspan font-size="24" x="112" y="0">7</tspan><tspan font-size="24" x="125.333" y="0"> </tspan><tspan font-size="24" x="130.667" y="0">9</tspan></text><path d="M94.5001 456.5C94.5001 453.186 97.1864 450.5 100.5 450.5L345.5 450.5C348.814 450.5 351.5 453.186 351.5 456.5L351.5 480.5C351.5 483.814 348.814 486.5 345.5 486.5L100.5 486.5C97.1864 486.5 94.5001 483.814 94.5001 480.5Z" stroke="#AE5A21" stroke-width="1.33333" stroke-miterlimit="8" fill="#ED7D31" fill-rule="evenodd"/><text fill="#FFFFFF" font-family="Cambria Math,Cambria Math_MSFontService,sans-serif" font-weight="400" font-size="24" transform="translate(196.918 477)">0<tspan font-size="24" x="13.3333" y="0"> </tspan><tspan font-size="24" x="18.6667" y="0">1</tspan><tspan font-size="24" x="32" y="0"> </tspan><tspan font-size="24" x="37.3333" y="0">3</tspan></text><path d="M372.5 455.5C372.5 452.186 375.186 449.5 378.5 449.5L623.5 449.5C626.814 449.5 629.5 452.186 629.5 455.5L629.5 479.5C629.5 482.814 626.814 485.5 623.5 485.5L378.5 485.5C375.186 485.5 372.5 482.814 372.5 479.5Z" stroke="#AE5A21" stroke-width="1.33333" stroke-miterlimit="8" fill="#ED7D31" fill-rule="evenodd"/><text fill="#FFFFFF" font-family="Cambria Math,Cambria Math_MSFontService,sans-serif" font-weight="400" font-size="24" transform="translate(463.377 476)">1<tspan font-size="24" x="13.3333" y="0"> </tspan><tspan font-size="24" x="18.6667" y="0">4</tspan><tspan font-size="24" x="32" y="0"> </tspan><tspan font-size="24" x="37.3333" y="0"> </tspan><tspan font-size="24" x="42.6667" y="0">5</tspan><tspan font-size="24" x="56" y="0"> </tspan><tspan font-size="24" x="61.3333" y="0">9</tspan></text><path d="M651.5 455.5C651.5 452.186 654.186 449.5 657.5 449.5L902.5 449.5C905.814 449.5 908.5 452.186 908.5 455.5L908.5 479.5C908.5 482.814 905.814 485.5 902.5 485.5L657.5 485.5C654.186 485.5 651.5 482.814 651.5 479.5Z" stroke="#AE5A21" stroke-width="1.33333" stroke-miterlimit="8" fill="#ED7D31" fill-rule="evenodd"/><text fill="#FFFFFF" font-family="Cambria Math,Cambria Math_MSFontService,sans-serif" font-weight="400" font-size="24" transform="translate(753.835 476)">6<tspan font-size="24" x="13.3333" y="0"> </tspan><tspan font-size="24" x="18.6666" y="0">7</tspan><tspan font-size="24" x="32" y="0"> </tspan><tspan font-size="24" x="37.3333" y="0">9</tspan></text><path d="M929.5 455.5C929.5 452.186 932.186 449.5 935.5 449.5L1180.5 449.5C1183.81 449.5 1186.5 452.186 1186.5 455.5L1186.5 479.5C1186.5 482.814 1183.81 485.5 1180.5 485.5L935.5 485.5C932.186 485.5 929.5 482.814 929.5 479.5Z" stroke="#AE5A21" stroke-width="1.33333" stroke-miterlimit="8" fill="#ED7D31" fill-rule="evenodd"/><text fill="#FFFFFF" font-family="Cambria Math,Cambria Math_MSFontService,sans-serif" font-weight="400" font-size="24" transform="translate(1032.29 476)">0<tspan font-size="24" x="13.3334" y="0"> </tspan><tspan font-size="24" x="18.6667" y="0">4</tspan><tspan font-size="24" x="32" y="0"> </tspan><tspan font-size="24" x="37.3334" y="0">9</tspan></text><path d="M114.5 322.667C114.5 315.947 119.947 310.5 126.667 310.5L333.333 310.5C340.053 310.5 345.5 315.947 345.5 322.667L345.5 371.333C345.5 378.053 340.053 383.5 333.333 383.5L126.667 383.5C119.947 383.5 114.5 378.053 114.5 371.333Z" stroke="#507E32" stroke-width="1.33333" stroke-miterlimit="8" fill="#70AD47" fill-rule="evenodd"/><text fill="#FFFFFF" font-family="Calibri,Calibri_MSFontService,sans-serif" font-weight="400" font-size="19" transform="translate(134.919 341)">Owned variables (rank 0)<tspan font-size="19" x="76.26" y="23">0 1 3</tspan></text><path d="M371.5 322.5C371.5 315.873 376.873 310.5 383.5 310.5L590.5 310.5C597.127 310.5 602.5 315.873 602.5 322.5L602.5 370.5C602.5 377.127 597.127 382.5 590.5 382.5L383.5 382.5C376.873 382.5 371.5 377.127 371.5 370.5Z" stroke="#507E32" stroke-width="1.33333" stroke-miterlimit="8" fill="#70AD47" fill-rule="evenodd"/><text fill="#FFFFFF" font-family="Calibri,Calibri_MSFontService,sans-serif" font-weight="400" font-size="19" transform="translate(391.774 341)">Owned variables (rank 1)<tspan font-size="19" x="76.26" y="23">4 5 9</tspan></text><path d="M640.5 322.5C640.5 315.873 645.873 310.5 652.5 310.5L859.5 310.5C866.127 310.5 871.5 315.873 871.5 322.5L871.5 370.5C871.5 377.127 866.127 382.5 859.5 382.5L652.5 382.5C645.873 382.5 640.5 377.127 640.5 370.5Z" stroke="#507E32" stroke-width="1.33333" stroke-miterlimit="8" fill="#70AD47" fill-rule="evenodd"/><text fill="#FFFFFF" font-family="Calibri,Calibri_MSFontService,sans-serif" font-weight="400" font-size="19" transform="translate(660.589 341)">Owned variables (rank 2)<tspan font-size="19" x="83.0933" y="23">6 7</tspan></text><path d="M935.5 322.5C935.5 315.873 940.873 310.5 947.5 310.5L1154.5 310.5C1161.13 310.5 1166.5 315.873 1166.5 322.5L1166.5 370.5C1166.5 377.127 1161.13 382.5 1154.5 382.5L947.5 382.5C940.873 382.5 935.5 377.127 935.5 370.5Z" stroke="#507E32" stroke-width="1.33333" stroke-miterlimit="8" fill="#70AD47" fill-rule="evenodd"/><text fill="#FFFFFF" font-family="Calibri,Calibri_MSFontService,sans-serif" font-weight="400" font-size="19" transform="translate(954.484 341)">Owned variables (rank N)<tspan font-size="19" x="93.5866" y="23">.</tspan><tspan fill="#000000" font-size="19" x="-60.0737" y="11">…</tspan></text><path d="M0 0 457.101 80.2899" stroke="#ED7D31" stroke-width="2" stroke-linejoin="round" stroke-miterlimit="10" stroke-dasharray="8 6" fill="none" fill-rule="evenodd" transform="matrix(-1 0 0 1 667.101 225)"/><path d="M0 0 457.609 84.9011" stroke="#ED7D31" stroke-width="2" stroke-linejoin="round" stroke-miterlimit="10" stroke-dasharray="8 6" fill="none" fill-rule="evenodd" transform="matrix(-1 0 0 1 687.609 225)"/><path d="M0 0 434.339 88.057" stroke="#ED7D31" stroke-width="2" stroke-linejoin="round" stroke-miterlimit="10" stroke-dasharray="8 6" fill="none" fill-rule="evenodd" transform="matrix(-1 0 0 1 713.339 222)"/><path d="M0 0 269.114 79.5035" stroke="#ED7D31" stroke-width="2" stroke-linejoin="round" stroke-miterlimit="10" stroke-dasharray="8 6" fill="none" fill-rule="evenodd" transform="matrix(-1 0 0 1 723.114 226)"/><path d="M0 0 259.221 83.4755" stroke="#ED7D31" stroke-width="2" stroke-linejoin="round" stroke-miterlimit="10" stroke-dasharray="8 6" fill="none" fill-rule="evenodd" transform="matrix(-1 0 0 1 745.221 226)"/><path d="M0 0 283.842 88.0572" stroke="#ED7D31" stroke-width="2" stroke-linejoin="round" stroke-miterlimit="10" stroke-dasharray="8 6" fill="none" fill-rule="evenodd" transform="matrix(-1 0 0 1 803.842 222)"/><path d="M0 0 26.8384 88.8729" stroke="#ED7D31" stroke-width="2" stroke-linejoin="round" stroke-miterlimit="10" stroke-dasharray="8 6" fill="none" fill-rule="evenodd" transform="matrix(-1 0 0 1 762.838 221)"/><path d="M0 0 25.8587 88.8732" stroke="#ED7D31" stroke-width="2" stroke-linejoin="round" stroke-miterlimit="10" stroke-dasharray="8 6" fill="none" fill-rule="evenodd" transform="matrix(-1 0 0 1 780.859 221)"/><path d="M0.994172-0.107803 7.55622 60.4083 5.56788 60.6239-0.994172 0.107803ZM10.395 58.7593 7.28073 67.1439 2.44162 59.6218Z" fill="#4472C4" transform="matrix(-1 0 0 1 229.281 383)"/><path d="M230.269 382.037 459.48 446.071 458.942 447.997 229.731 383.963ZM459.002 442.823 465.631 448.828 456.85 450.528Z" fill="#4472C4"/><path d="M486.978 381.789 499.897 441.74 497.941 442.161 485.022 382.211ZM502.548 439.804 500.323 448.467 494.728 441.49Z" fill="#4472C4"/><path d="M486.221 381.025 772.503 446.016 772.06 447.967 485.779 382.975ZM771.866 442.796 778.782 448.467 770.095 450.597Z" fill="#4472C4"/><path d="M755.941 381.661 777.646 441.857 775.765 442.535 754.059 382.339ZM780.016 439.585 778.967 448.467 772.49 442.299Z" fill="#4472C4"/><path d="M230.079 382.003 1051.53 447.303 1051.37 449.296 229.921 383.997ZM1050.44 444.207 1058.1 448.828 1049.8 452.182Z" fill="#4472C4"/><path d="M486.116 381.007 1050.73 446.703 1050.5 448.69 485.884 382.993ZM1049.76 443.569 1057.24 448.467 1048.83 451.516Z" fill="#4472C4"/><text font-family="Calibri,Calibri_MSFontService,sans-serif" font-weight="400" font-size="24" transform="translate(334.765 440)">1<tspan font-size="24" x="338.802" y="4">9</tspan><tspan font-size="24" x="700.849" y="-11">4,9</tspan><tspan font-size="24" x="578.307" y="15">0</tspan></text><path d="M125.5 554.667C125.5 547.947 130.947 542.5 137.667 542.5L343.333 542.5C350.053 542.5 355.5 547.947 355.5 554.667L355.5 603.333C355.5 610.053 350.053 615.5 343.333 615.5L137.667 615.5C130.947 615.5 125.5 610.053 125.5 603.333Z" stroke="#41719C" stroke-width="1.33333" stroke-miterlimit="8" fill="#5B9BD5" fill-rule="evenodd"/><text fill="#FFFFFF" font-family="Calibri,Calibri_MSFontService,sans-serif" font-weight="400" font-size="19" transform="translate(148.532 584)">Functional Grad (rank 0)</text><path d="M382.5 554.667C382.5 547.947 387.947 542.5 394.667 542.5L600.333 542.5C607.053 542.5 612.5 547.947 612.5 554.667L612.5 603.333C612.5 610.053 607.053 615.5 600.333 615.5L394.667 615.5C387.947 615.5 382.5 610.053 382.5 603.333Z" stroke="#41719C" stroke-width="1.33333" stroke-miterlimit="8" fill="#5B9BD5" fill-rule="evenodd"/><text fill="#FFFFFF" font-family="Calibri,Calibri_MSFontService,sans-serif" font-weight="400" font-size="19" transform="translate(405.386 584)">Functional Grad (rank 1)</text><path d="M651.5 554.667C651.5 547.947 656.947 542.5 663.667 542.5L869.333 542.5C876.053 542.5 881.5 547.947 881.5 554.667L881.5 603.333C881.5 610.053 876.053 615.5 869.333 615.5L663.667 615.5C656.947 615.5 651.5 610.053 651.5 603.333Z" stroke="#41719C" stroke-width="1.33333" stroke-miterlimit="8" fill="#5B9BD5" fill-rule="evenodd"/><text fill="#FFFFFF" font-family="Calibri,Calibri_MSFontService,sans-serif" font-weight="400" font-size="19" transform="translate(674.201 584)">Functional Grad (rank 2)</text><path d="M946.5 554.667C946.5 547.947 951.947 542.5 958.667 542.5L1164.33 542.5C1171.05 542.5 1176.5 547.947 1176.5 554.667L1176.5 603.333C1176.5 610.053 1171.05 615.5 1164.33 615.5L958.667 615.5C951.947 615.5 946.5 610.053 946.5 603.333Z" stroke="#41719C" stroke-width="1.33333" stroke-miterlimit="8" fill="#5B9BD5" fill-rule="evenodd"/><text fill="#FFFFFF" font-family="Calibri,Calibri_MSFontService,sans-serif" font-weight="400" font-size="19" transform="translate(968.097 584)">Functional Grad (rank N)<tspan fill="#000000" font-size="19" x="-63.1271" y="-1">…</tspan></text><path d="M230.833 493.5 230.833 530.872 230.167 530.872 230.167 493.5ZM234.5 529.539 230.5 537.539 226.5 529.539Z" fill="#4472C4"/><path d="M486.833 493.5 486.833 532.483 486.167 532.483 486.167 493.5ZM490.5 531.149 486.5 539.149 482.5 531.149Z" fill="#4472C4"/><path d="M758.833 493.5 758.833 530.872 758.167 530.872 758.167 493.5ZM762.5 529.539 758.5 537.539 754.5 529.539Z" fill="#4472C4"/><path d="M1050.83 493.5 1050.83 530.872 1050.17 530.872 1050.17 493.5ZM1054.5 529.539 1050.5 537.539 1046.5 529.539Z" fill="#4472C4"/><path d="M125.5 714.667C125.5 707.947 130.947 702.5 137.667 702.5L343.333 702.5C350.053 702.5 355.5 707.947 355.5 714.667L355.5 763.333C355.5 770.053 350.053 775.5 343.333 775.5L137.667 775.5C130.947 775.5 125.5 770.053 125.5 763.333Z" stroke="#507E32" stroke-width="1.33333" stroke-miterlimit="8" fill="#70AD47" fill-rule="evenodd"/><text fill="#FFFFFF" font-family="Calibri,Calibri_MSFontService,sans-serif" font-weight="400" font-size="19" transform="translate(145.478 733)">Owned variables (rank 0)<tspan font-size="19" x="76.26" y="23">0 1 3</tspan></text><path d="M382.5 714.5C382.5 707.873 387.873 702.5 394.5 702.5L600.5 702.5C607.127 702.5 612.5 707.873 612.5 714.5L612.5 762.5C612.5 769.127 607.127 774.5 600.5 774.5L394.5 774.5C387.873 774.5 382.5 769.127 382.5 762.5Z" stroke="#507E32" stroke-width="1.33333" stroke-miterlimit="8" fill="#70AD47" fill-rule="evenodd"/><text fill="#FFFFFF" font-family="Calibri,Calibri_MSFontService,sans-serif" font-weight="400" font-size="19" transform="translate(402.333 733)">Owned variables (rank 1)<tspan font-size="19" x="76.26" y="23">4 5 9</tspan></text><path d="M651.5 714.5C651.5 707.873 656.873 702.5 663.5 702.5L869.5 702.5C876.127 702.5 881.5 707.873 881.5 714.5L881.5 762.5C881.5 769.127 876.127 774.5 869.5 774.5L663.5 774.5C656.873 774.5 651.5 769.127 651.5 762.5Z" stroke="#507E32" stroke-width="1.33333" stroke-miterlimit="8" fill="#70AD47" fill-rule="evenodd"/><text fill="#FFFFFF" font-family="Calibri,Calibri_MSFontService,sans-serif" font-weight="400" font-size="19" transform="translate(671.148 733)">Owned variables (rank 2)<tspan font-size="19" x="83.0933" y="23">6 7</tspan></text><path d="M946.5 714.5C946.5 707.873 951.873 702.5 958.5 702.5L1164.5 702.5C1171.13 702.5 1176.5 707.873 1176.5 714.5L1176.5 762.5C1176.5 769.127 1171.13 774.5 1164.5 774.5L958.5 774.5C951.873 774.5 946.5 769.127 946.5 762.5Z" stroke="#507E32" stroke-width="1.33333" stroke-miterlimit="8" fill="#70AD47" fill-rule="evenodd"/><text fill="#FFFFFF" font-family="Calibri,Calibri_MSFontService,sans-serif" font-weight="400" font-size="19" transform="translate(965.044 733)">Owned variables (rank N)<tspan font-size="19" x="93.5867" y="23">.</tspan><tspan fill="#000000" font-size="19" x="-60.0737" y="11">…</tspan></text><path d="M0.994172-0.107803 7.55622 60.4083 5.56788 60.6239-0.994172 0.107803ZM10.395 58.7593 7.28073 67.1439 2.44162 59.6218Z" fill="#4472C4" transform="matrix(-1 0 0 1 236.281 628)"/><path d="M493.978 627.789 506.897 687.74 504.941 688.161 492.022 628.211ZM509.548 685.804 507.323 694.468 501.728 687.49Z" fill="#4472C4"/><path d="M762.941 627.661 784.646 687.857 782.765 688.535 761.059 628.339ZM787.016 685.585 785.967 694.468 779.49 688.299Z" fill="#4472C4"/><path d="M0.127054-0.991896 550.433 69.4979 550.179 71.4817-0.127054 0.991896ZM549.491 66.3527 556.917 71.3367 548.474 74.2878Z" fill="#4472C4" transform="matrix(-1 0 0 1 1063.92 628)"/><path d="M0.251627-0.967824 240.349 61.4557 239.846 63.3913-0.251627 0.967824ZM239.814 58.2168 246.55 64.1011 237.8 65.9594Z" fill="#4472C4" transform="matrix(-1 0 0 1 761.55 630)"/><path d="M0.0804657-0.996757 825.172 65.6108 825.011 67.6043-0.0804657 0.996757ZM824.084 62.5132 831.736 67.1439 823.44 70.4872Z" fill="#4472C4" transform="matrix(-1 0 0 1 1064.74 628)"/><path d="M0.256761-0.966475 244.004 63.7893 243.49 65.7223-0.256761 0.966475ZM243.485 60.5474 250.19 66.4674 241.431 68.2792Z" fill="#4472C4" transform="matrix(-1 0 0 1 486.19 628)"/><text font-family="Calibri,Calibri_MSFontService,sans-serif" font-weight="400" font-size="24" transform="translate(351.924 653)">1<tspan font-size="24" x="350.03" y="-18">9</tspan><tspan font-size="24" x="657.805" y="14">4,9</tspan><tspan font-size="24" x="560.947" y="-26">0</tspan></text><path d="M125.5 823.667C125.5 816.948 130.948 811.5 137.667 811.5L1164.33 811.5C1171.05 811.5 1176.5 816.948 1176.5 823.667L1176.5 872.333C1176.5 879.052 1171.05 884.5 1164.33 884.5L137.667 884.5C130.948 884.5 125.5 879.052 125.5 872.333Z" stroke="#BC8C00" stroke-width="1.33333" stroke-miterlimit="8" fill="#FFC000" fill-rule="evenodd"/><text fill="#FFFFFF" font-family="Calibri,Calibri_MSFontService,sans-serif" font-weight="400" font-size="24" transform="translate(492.423 855)">Global Optimizer Functional Eval</text><path d="M240.528 777.168 644.293 811.439 644.237 812.103 240.472 777.832ZM643.274 807.672 650.907 812.335 642.598 815.644Z" fill="#4472C4"/><path d="M497.574 777.175 644.625 810.535 644.478 811.185 497.426 777.825ZM644.136 806.664 651.053 812.335 642.366 814.466Z" fill="#4472C4"/><path d="M0.0964328-0.31908 108.977 32.587 108.784 33.2252-0.0964328 0.31908ZM108.762 28.6914 115.262 34.8348 106.447 36.3493Z" fill="#4472C4" transform="matrix(-1 0 0 1 766.762 777.5)"/></g></svg>