<svg width="1096" height="180" xmlns="http://www.w3.org/2000/svg" xmlns:xlink="http://www.w3.org/1999/xlink" overflow="hidden"><defs><clipPath id="clip0"><rect x="92" y="308" width="1096" height="180"/></clipPath></defs><g clip-path="url(#clip0)" transform="translate(-92 -308)"><path d="M94.5001 456.5C94.5001 453.186 97.1864 450.5 100.5 450.5L345.5 450.5C348.814 450.5 351.5 453.186 351.5 456.5L351.5 480.5C351.5 483.814 348.814 486.5 345.5 486.5L100.5 486.5C97.1864 486.5 94.5001 483.814 94.5001 480.5Z" stroke="#AE5A21" stroke-width="1.33333" stroke-miterlimit="8" fill="#ED7D31" fill-rule="evenodd"/><text fill="#FFFFFF" font-family="Cambria Math,Cambria Math_MSFontService,sans-serif" font-weight="400" font-size="24" transform="translate(196.918 477)">0<tspan font-size="24" x="13.3333" y="0"> </tspan><tspan font-size="24" x="18.6667" y="0">1</tspan><tspan font-size="24" x="32" y="0"> </tspan><tspan font-size="24" x="37.3333" y="0">3</tspan></text><path d="M372.5 455.5C372.5 452.186 375.186 449.5 378.5 449.5L623.5 449.5C626.814 449.5 629.5 452.186 629.5 455.5L629.5 479.5C629.5 482.814 626.814 485.5 623.5 485.5L378.5 485.5C375.186 485.5 372.5 482.814 372.5 479.5Z" stroke="#AE5A21" stroke-width="1.33333" stroke-miterlimit="8" fill="#ED7D31" fill-rule="evenodd"/><text fill="#FFFFFF" font-family="Cambria Math,Cambria Math_MSFontService,sans-serif" font-weight="400" font-size="24" transform="translate(463.377 476)">1<tspan font-size="24" x="13.3333" y="0"> </tspan><tspan font-size="24" x="18.6667" y="0">4</tspan><tspan font-size="24" x="32" y="0"> </tspan><tspan font-size="24" x="37.3333" y="0"> </tspan><tspan font-size="24" x="42.6667" y="0">5</tspan><tspan font-size="24" x="56" y="0"> </tspan><tspan font-size="24" x="61.3333" y="0">9</tspan></text><path d="M651.5 455.5C651.5 452.186 654.186 449.5 657.5 449.5L902.5 449.5C905.814 449.5 908.5 452.186 908.5 455.5L908.5 479.5C908.5 482.814 905.814 485.5 902.5 485.5L657.5 485.5C654.186 485.5 651.5 482.814 651.5 479.5Z" stroke="#AE5A21" stroke-width="1.33333" stroke-miterlimit="8" fill="#ED7D31" fill-rule="evenodd"/><text fill="#FFFFFF" font-family="Cambria Math,Cambria Math_MSFontService,sans-serif" font-weight="400" font-size="24" transform="translate(753.835 476)">6<tspan font-size="24" x="13.3333" y="0"> </tspan><tspan font-size="24" x="18.6666" y="0">7</tspan><tspan font-size="24" x="32" y="0"> </tspan><tspan font-size="24" x="37.3333" y="0">9</tspan></text><path d="M929.5 455.5C929.5 452.186 932.186 449.5 935.5 449.5L1180.5 449.5C1183.81 449.5 1186.5 452.186 1186.5 455.5L1186.5 479.5C1186.5 482.814 1183.81 485.5 1180.5 485.5L935.5 485.5C932.186 485.5 929.5 482.814 929.5 479.5Z" stroke="#AE5A21" stroke-width="1.33333" stroke-miterlimit="8" fill="#ED7D31" fill-rule="evenodd"/><text fill="#FFFFFF" font-family="Cambria Math,Cambria Math_MSFontService,sans-serif" font-weight="400" font-size="24" transform="translate(1032.29 476)">0<tspan font-size="24" x="13.3334" y="0"> </tspan><tspan font-size="24" x="18.6667" y="0">4</tspan><tspan font-size="24" x="32" y="0"> </tspan><tspan font-size="24" x="37.3334" y="0">9</tspan></text><path d="M114.5 322.667C114.5 315.947 119.947 310.5 126.667 310.5L333.333 310.5C340.053 310.5 345.5 315.947 345.5 322.667L345.5 371.333C345.5 378.053 340.053 383.5 333.333 383.5L126.667 383.5C119.947 383.5 114.5 378.053 114.5 371.333Z" stroke="#507E32" stroke-width="1.33333" stroke-miterlimit="8" fill="#70AD47" fill-rule="evenodd"/><text fill="#FFFFFF" font-family="Calibri,Calibri_MSFontService,sans-serif" font-weight="400" font-size="19" transform="translate(134.919 341)">Owned<tspan font-size="19" x="58.8333" y="0">variab</tspan><tspan font-size="19" x="105.727" y="0">les (rank 0)</tspan><tspan font-size="19" x="76.26" y="23">0 1 3</tspan></text><path d="M371.5 322.5C371.5 315.873 376.873 310.5 383.5 310.5L590.5 310.5C597.127 310.5 602.5 315.873 602.5 322.5L602.5 370.5C602.5 377.127 597.127 382.5 590.5 382.5L383.5 382.5C376.873 382.5 371.5 377.127 371.5 370.5Z" stroke="#507E32" stroke-width="1.33333" stroke-miterlimit="8" fill="#70AD47" fill-rule="evenodd"/><text fill="#FFFFFF" font-family="Calibri,Calibri_MSFontService,sans-serif" font-weight="400" font-size="19" transform="translate(391.774 341)">Owned<tspan font-size="19" x="58.8333" y="0">variab</tspan><tspan font-size="19" x="105.727" y="0">les (rank 1)</tspan><tspan font-size="19" x="76.26" y="23">4 5</tspan><tspan font-size="19" x="103.593" y="23">9</tspan></text><path d="M640.5 322.5C640.5 315.873 645.873 310.5 652.5 310.5L859.5 310.5C866.127 310.5 871.5 315.873 871.5 322.5L871.5 370.5C871.5 377.127 866.127 382.5 859.5 382.5L652.5 382.5C645.873 382.5 640.5 377.127 640.5 370.5Z" stroke="#507E32" stroke-width="1.33333" stroke-miterlimit="8" fill="#70AD47" fill-rule="evenodd"/><text fill="#FFFFFF" font-family="Calibri,Calibri_MSFontService,sans-serif" font-weight="400" font-size="19" transform="translate(660.589 341)">Owned<tspan font-size="19" x="58.8333" y="0">variab</tspan><tspan font-size="19" x="105.727" y="0">les (rank 2)</tspan><tspan font-size="19" x="83.0933" y="23">6</tspan><tspan font-size="19" x="96.76" y="23">7</tspan></text><path d="M935.5 322.5C935.5 315.873 940.873 310.5 947.5 310.5L1154.5 310.5C1161.13 310.5 1166.5 315.873 1166.5 322.5L1166.5 370.5C1166.5 377.127 1161.13 382.5 1154.5 382.5L947.5 382.5C940.873 382.5 935.5 377.127 935.5 370.5Z" stroke="#507E32" stroke-width="1.33333" stroke-miterlimit="8" fill="#70AD47" fill-rule="evenodd"/><text fill="#FFFFFF" font-family="Calibri,Calibri_MSFontService,sans-serif" font-weight="400" font-size="19" transform="translate(954.484 341)">Owned<tspan font-size="19" x="58.8333" y="0">variab</tspan><tspan font-size="19" x="105.727" y="0">les (rank N)</tspan><tspan font-size="19" x="93.5866" y="23">.</tspan><tspan fill="#000000" font-size="19" x="-60.0737" y="11">…</tspan></text><path d="M0.994172-0.107803 7.55622 60.4083 5.56788 60.6239-0.994172 0.107803ZM10.395 58.7593 7.28073 67.1439 2.44162 59.6218Z" fill="#4472C4" transform="matrix(-1 0 0 1 229.281 383)"/><path d="M230.269 382.037 459.48 446.071 458.942 447.997 229.731 383.963ZM459.002 442.823 465.631 448.828 456.85 450.528Z" fill="#4472C4"/><path d="M486.978 381.789 499.897 441.74 497.941 442.161 485.022 382.211ZM502.548 439.804 500.323 448.467 494.728 441.49Z" fill="#4472C4"/><path d="M486.221 381.025 772.503 446.016 772.06 447.967 485.779 382.975ZM771.866 442.796 778.782 448.467 770.095 450.597Z" fill="#4472C4"/><path d="M755.941 381.661 777.646 441.857 775.765 442.535 754.059 382.339ZM780.016 439.585 778.967 448.467 772.49 442.299Z" fill="#4472C4"/><path d="M230.079 382.003 1051.53 447.303 1051.37 449.296 229.921 383.997ZM1050.44 444.207 1058.1 448.828 1049.8 452.182Z" fill="#4472C4"/><path d="M486.116 381.007 1050.73 446.703 1050.5 448.69 485.884 382.993ZM1049.76 443.569 1057.24 448.467 1048.83 451.516Z" fill="#4472C4"/><text font-family="Calibri,Calibri_MSFontService,sans-serif" font-weight="400" font-size="24" transform="translate(334.765 440)">1<tspan font-size="24" x="338.802" y="4">9</tspan><tspan font-size="24" x="700.849" y="-11">4,9</tspan><tspan font-size="24" x="578.307" y="15">0</tspan></text></g></svg>