<svg width="1140" height="1159" xmlns="http://www.w3.org/2000/svg" xmlns:xlink="http://www.w3.org/1999/xlink" overflow="hidden"><defs><clipPath id="clip0"><rect x="53" y="161" width="1140" height="1159"/></clipPath></defs><g clip-path="url(#clip0)" transform="translate(-53 -161)"><path d="M101.5 181.5C101.5 174.873 106.873 169.5 113.5 169.5L320.5 169.5C327.127 169.5 332.5 174.873 332.5 181.5L332.5 229.5C332.5 236.127 327.127 241.5 320.5 241.5L113.5 241.5C106.873 241.5 101.5 236.127 101.5 229.5Z" stroke="#2F528F" stroke-width="1.33333" stroke-miterlimit="8" fill="#4472C4" fill-rule="evenodd"/><text fill="#FFFFFF" font-family="Calibri,Calibri_MSFontService,sans-serif" font-weight="400" font-size="19" transform="translate(180.324 200)">op::<tspan font-size="19" x="29.6667" y="0">Nlopt</tspan><tspan font-size="19" x="-8.92667" y="23">Constructor</tspan></text><path d="M643.5 181.5C643.5 174.873 648.873 169.5 655.5 169.5L873.5 169.5C880.127 169.5 885.5 174.873 885.5 181.5L885.5 229.5C885.5 236.127 880.127 241.5 873.5 241.5L655.5 241.5C648.873 241.5 643.5 236.127 643.5 229.5Z" stroke="#AE5A21" stroke-width="1.33333" stroke-miterlimit="8" fill="#ED7D31" fill-rule="evenodd"/><text fill="#FFFFFF" font-family="Calibri,Calibri_MSFontService,sans-serif" font-weight="400" font-size="19" transform="translate(663.476 200)">op::Vector::<tspan font-size="19" x="89.06" y="0">lowerBounds</tspan><tspan font-size="19" x="188.987" y="0">()</tspan><tspan font-size="19" x="-1.12006" y="23">op::Vector::</tspan><tspan font-size="19" x="87.94" y="23">upperBounds</tspan><tspan font-size="19" x="190.107" y="23">()</tspan></text><path d="M373.5 162.5 373.5 1318.81" stroke="#000000" stroke-linejoin="round" stroke-miterlimit="10" stroke-dasharray="4 3" fill="none" fill-rule="evenodd"/><path d="M764.833 252.5 764.833 286.794 764.167 286.794 764.167 252.5ZM768.5 285.461 764.5 293.461 760.5 285.461Z" fill="#70AD47"/><path d="M101.5 418.667C101.5 411.947 106.947 406.5 113.667 406.5L320.333 406.5C327.053 406.5 332.5 411.947 332.5 418.667L332.5 467.333C332.5 474.053 327.053 479.5 320.333 479.5L113.667 479.5C106.947 479.5 101.5 474.053 101.5 467.333Z" stroke="#2F528F" stroke-width="1.33333" stroke-miterlimit="8" fill="#4472C4" fill-rule="evenodd"/><text fill="#FFFFFF" font-family="Calibri,Calibri_MSFontService,sans-serif" font-weight="400" font-size="19" transform="translate(158.827 448)">op::<tspan font-size="19" x="29.6667" y="0">Nlopt</tspan><tspan font-size="19" x="71.92" y="0">::Go()</tspan></text><path d="M521.5 418.667C521.5 411.947 526.947 406.5 533.667 406.5L752.333 406.5C759.053 406.5 764.5 411.947 764.5 418.667L764.5 467.333C764.5 474.053 759.053 479.5 752.333 479.5L533.667 479.5C526.947 479.5 521.5 474.053 521.5 467.333Z" stroke="#2F528F" stroke-width="1.33333" stroke-miterlimit="8" fill="#4472C4" fill-rule="evenodd"/><text fill="#FFFFFF" font-family="Calibri,Calibri_MSFontService,sans-serif" font-weight="400" font-size="19" transform="translate(543.715 448)">op::<tspan font-size="19" x="29.6667" y="0">Nlopt</tspan><tspan font-size="19" x="71.92" y="0">::</tspan>setObjective(..)</text><path d="M521.5 499.667C521.5 492.947 526.947 487.5 533.667 487.5L752.333 487.5C759.053 487.5 764.5 492.947 764.5 499.667L764.5 548.333C764.5 555.053 759.053 560.5 752.333 560.5L533.667 560.5C526.947 560.5 521.5 555.053 521.5 548.333Z" stroke="#2F528F" stroke-width="1.33333" stroke-miterlimit="8" fill="#4472C4" fill-rule="evenodd"/><text fill="#FFFFFF" font-family="Calibri,Calibri_MSFontService,sans-serif" font-weight="400" font-size="19" transform="translate(537.622 529)">op::<tspan font-size="19" x="29.6666" y="0">Nlopt</tspan><tspan font-size="19" x="71.92" y="0">::</tspan>addConstraint<tspan font-size="19" x="189.16" y="0">(..)</tspan></text><path d="M782.5 444 786.5 444 786.5 445 782.5 445ZM789.5 444 793.5 444 793.5 445 789.5 445ZM796.5 444 800.5 444 800.5 445 796.5 445ZM803.5 444 807.5 444 807.5 445 803.5 445ZM810.5 444 814.5 444 814.5 445 810.5 445ZM817.5 444 821.5 444 821.5 445 817.5 445ZM824.5 444 828.5 444 828.5 445 824.5 445ZM831.5 444 832.2 444 832.2 445 831.5 445ZM830.867 440.5 838.867 444.5 830.867 448.5Z"/><path d="M857.5 418.667C857.5 411.947 862.947 406.5 869.667 406.5L1087.33 406.5C1094.05 406.5 1099.5 411.947 1099.5 418.667L1099.5 467.333C1099.5 474.053 1094.05 479.5 1087.33 479.5L869.667 479.5C862.947 479.5 857.5 474.053 857.5 467.333Z" stroke="#BC8C00" stroke-width="1.33333" stroke-miterlimit="8" fill="#FFC000" fill-rule="evenodd"/><text fill="#FFFFFF" font-family="Calibri,Calibri_MSFontService,sans-serif" font-weight="400" font-size="19" transform="translate(880.705 448)">op::Functional (objective)</text><path d="M857.5 499.667C857.5 492.947 862.947 487.5 869.667 487.5L1087.33 487.5C1094.05 487.5 1099.5 492.947 1099.5 499.667L1099.5 548.333C1099.5 555.053 1094.05 560.5 1087.33 560.5L869.667 560.5C862.947 560.5 857.5 555.053 857.5 548.333Z" stroke="#BC8C00" stroke-width="1.33333" stroke-miterlimit="8" fill="#FFC000" fill-rule="evenodd"/><text fill="#FFFFFF" font-family="Calibri,Calibri_MSFontService,sans-serif" font-weight="400" font-size="19" transform="translate(876.245 518)">op::Functional (Constraint)<tspan font-size="19" x="31.9133" y="23">Constraint Bounds</tspan></text><path d="M782.5 524 786.5 524 786.5 525 782.5 525ZM789.5 524 793.5 524 793.5 525 789.5 525ZM796.5 524 800.5 524 800.5 525 796.5 525ZM803.5 524 807.5 524 807.5 525 803.5 525ZM810.5 524 814.5 524 814.5 525 810.5 525ZM817.5 524 821.5 524 821.5 525 817.5 525ZM824.5 524 828.5 524 828.5 525 824.5 525ZM831.5 524 832.2 524 832.2 525 831.5 525ZM830.867 520.5 838.867 524.5 830.867 528.5Z"/><path d="M550.5 313.667C550.5 306.947 555.947 301.5 562.667 301.5L975.333 301.5C982.053 301.5 987.5 306.947 987.5 313.667L987.5 362.333C987.5 369.053 982.053 374.5 975.333 374.5L562.667 374.5C555.947 374.5 550.5 369.053 550.5 362.333Z" stroke="#787878" stroke-width="1.33333" stroke-miterlimit="8" fill="#A5A5A5" fill-rule="evenodd"/><text fill="#FFFFFF" font-family="Calibri,Calibri_MSFontService,sans-serif" font-weight="400" font-size="19" transform="translate(621.135 343)">op::<tspan font-size="19" x="29.6667" y="0">RankCommunication</tspan><tspan font-size="19" x="191.673" y="0">pattern setup</tspan></text><path d="M216.833 260.5 216.833 379.221 216.167 379.221 216.167 260.5ZM220.5 377.888 216.5 385.888 212.5 377.888Z" fill="#4472C4"/><path d="M215.833 497.5 215.833 1179.18 215.167 1179.18 215.167 497.5ZM219.5 1177.84 215.5 1185.84 211.5 1177.84Z" fill="#4472C4"/><path d="M54.5001 392.5 1192.79 392.5" stroke="#A5A5A5" stroke-linejoin="round" stroke-miterlimit="10" stroke-dasharray="4 3" fill="none" fill-rule="evenodd"/><text font-family="Calibri,Calibri_MSFontService,sans-serif" font-weight="400" font-size="19" transform="matrix(-1.83697e-16 -1 1 -1.83697e-16 431.327 551)">Go::<tspan font-size="19" x="31" y="5.69461e-15">onPreProcess</tspan><tspan font-size="19" x="134" y="2.46154e-14">()</tspan></text><path d="M433.327 551.393 433.327 515.143 433.327 478.893 433.327 442.643 433.327 406.393 434.327 406.393 434.327 442.643 434.327 478.893 434.327 515.143 434.327 551.393Z" fill-rule="evenodd"/><path d="M459.5 481.167 486.02 481.167 486.02 481.833 459.5 481.833ZM484.687 477.5 492.687 481.5 484.687 485.5Z" fill="#70AD47"/><text font-family="Calibri,Calibri_MSFontService,sans-serif" font-weight="400" font-size="19" transform="matrix(-1.83697e-16 -1 1 -1.83697e-16 428.337 957)">Go::<tspan font-size="19" x="31" y="5.69461e-15">onGo</tspan><tspan font-size="19" x="73" y="1.34099e-14">()</tspan></text><path d="M430.337 957.593 430.337 872.593 431.337 872.593 431.337 957.593Z" fill-rule="evenodd"/><path d="M556.5 891.5C556.5 884.873 561.873 879.5 568.5 879.5L860.5 879.5C867.127 879.5 872.5 884.873 872.5 891.5L872.5 939.5C872.5 946.127 867.127 951.5 860.5 951.5L568.5 951.5C561.873 951.5 556.5 946.127 556.5 939.5Z" stroke="#2F528F" stroke-width="1.33333" stroke-miterlimit="8" fill="#4472C4" fill-rule="evenodd"/><text fill="#FFFFFF" font-family="Calibri,Calibri_MSFontService,sans-serif" font-weight="400" font-size="19" transform="translate(572.322 921)">op::<tspan font-size="19" x="29.6667" y="0">Nlopt</tspan><tspan font-size="19" x="71.92" y="0">::</tspan>UpdatedVariableCallback()</text><path d="M597.5 792 817.5 747.5 1037.5 792 817.5 836.5Z" stroke="#000000" stroke-width="1.33333" stroke-miterlimit="8" fill="#FFFFFF" fill-rule="evenodd"/><text font-family="Calibri,Calibri_MSFontService,sans-serif" font-weight="400" font-size="19" transform="translate(737.565 786)">Check if optimization <tspan font-size="19" x="-8.65332" y="23">variables have changed</tspan></text><path d="M0.333324-0.00248696 0.750777 55.9481 0.0841286 55.9531-0.333324 0.00248696ZM4.40739 54.5874 0.467192 62.617-3.59238 54.6471Z" fill="#ED7D31" transform="matrix(-1 0 0 1 714.967 816.5)"/><text font-family="Calibri,Calibri_MSFontService,sans-serif" font-weight="400" font-size="19" transform="translate(669.563 857)">Yes</text><path d="M693.5 634.667C693.5 627.947 698.947 622.5 705.667 622.5L923.333 622.5C930.053 622.5 935.5 627.947 935.5 634.667L935.5 683.333C935.5 690.053 930.053 695.5 923.333 695.5L705.667 695.5C698.947 695.5 693.5 690.053 693.5 683.333Z" stroke="#507E32" stroke-width="1.33333" stroke-miterlimit="8" fill="#70AD47" fill-rule="evenodd"/><text fill="#FFFFFF" font-family="Calibri,Calibri_MSFontService,sans-serif" font-weight="400" font-size="19" transform="translate(710.932 664)">Optimization Engine (state)</text><path d="M0.333333-8.21982e-07 0.333422 35.908-0.333245 35.908-0.333333 8.21982e-07ZM4.00009 34.5747 0.000104987 42.5747-3.99991 34.5747Z" fill="#70AD47" transform="matrix(-1 0 0 1 817.5 700.5)"/><path d="M636.5 1006.67C636.5 999.947 641.947 994.5 648.667 994.5L972.333 994.5C979.053 994.5 984.5 999.947 984.5 1006.67L984.5 1055.33C984.5 1062.05 979.053 1067.5 972.333 1067.5L648.667 1067.5C641.947 1067.5 636.5 1062.05 636.5 1055.33Z" stroke="#BC8C00" stroke-width="1.33333" stroke-miterlimit="8" fill="#FFC000" fill-rule="evenodd"/><text fill="#FFFFFF" font-family="Calibri,Calibri_MSFontService,sans-serif" font-weight="400" font-size="19" transform="translate(693.692 1025)">op::<tspan font-size="19" x="29.6667" y="0">Functional::</tspan><tspan font-size="19" x="119.333" y="0">EvalObjective</tspan><tspan font-size="19" x="221.773" y="0">()</tspan><tspan font-size="19" x="-33.2266" y="23">op::Functional::</tspan><tspan font-size="19" x="86.1067" y="23">EvalObjectiveGradient</tspan><tspan font-size="19" x="254.993" y="23">()</tspan></text><path d="M714.833 951.5 714.833 986.414 714.167 986.414 714.167 951.5ZM718.5 985.081 714.5 993.081 710.5 985.081Z" fill="#70AD47"/><path d="M925.833 813.5 925.833 987.934 925.167 987.934 925.167 813.5ZM929.5 986.6 925.5 994.6 921.5 986.6Z" fill="#70AD47"/><text font-family="Calibri,Calibri_MSFontService,sans-serif" font-weight="400" font-size="19" transform="translate(935.005 857)">No</text><path d="M1039.5 1159.5 1112.2 1159.5" stroke="#70AD47" stroke-width="0.666667" stroke-miterlimit="8" fill="none" fill-rule="evenodd"/><path d="M0 0 0.000104987 500.402" stroke="#70AD47" stroke-width="0.666667" stroke-miterlimit="8" fill="none" fill-rule="evenodd" transform="matrix(1 0 0 -1 1111.5 1158.9)"/><path d="M2.0274e-07-0.333333 165.947-0.333232 165.947 0.333434-2.0274e-07 0.333333ZM164.613-3.9999 172.613 0.000104987 164.613 4.0001Z" fill="#70AD47" transform="matrix(-1 0 0 1 1108.11 658.5)"/><path d="M599.5 1159 819.5 1114.5 1039.5 1159 819.5 1203.5Z" stroke="#000000" stroke-width="1.33333" stroke-miterlimit="8" fill="#FFFFFF" fill-rule="evenodd"/><text font-family="Calibri,Calibri_MSFontService,sans-serif" font-weight="400" font-size="19" transform="translate(722.513 1165)">Check if <tspan font-size="19" x="63.8334" y="0">solution</tspan><tspan font-size="19" x="129.667" y="0">satisfied</tspan></text><path d="M0.333333-8.21982e-07 0.333422 35.908-0.333245 35.908-0.333333 8.21982e-07ZM4.00009 34.5747 0.000104987 42.5747-3.99991 34.5747Z" fill="#ED7D31" transform="matrix(-1 0 0 1 819.5 1069.5)"/><text font-family="Calibri,Calibri_MSFontService,sans-serif" font-weight="400" font-size="19" transform="translate(1059.83 1147)">No</text><path d="M0.333333-8.21982e-07 0.333422 35.908-0.333245 35.908-0.333333 8.21982e-07ZM4.00009 34.5747 0.000104987 42.5747-3.99991 34.5747Z" fill="#70AD47" transform="matrix(-1 0 0 1 821.5 1201.5)"/><text font-family="Calibri,Calibri_MSFontService,sans-serif" font-weight="400" font-size="19" transform="translate(771.193 1232)">Yes</text><path d="M663.5 1258.5C663.5 1251.87 668.873 1246.5 675.5 1246.5L967.5 1246.5C974.127 1246.5 979.5 1251.87 979.5 1258.5L979.5 1306.5C979.5 1313.13 974.127 1318.5 967.5 1318.5L675.5 1318.5C668.873 1318.5 663.5 1313.13 663.5 1306.5Z" stroke="#2F528F" stroke-width="1.33333" stroke-miterlimit="8" fill="#4472C4" fill-rule="evenodd"/><text fill="#FFFFFF" font-family="Calibri,Calibri_MSFontService,sans-serif" font-weight="400" font-size="19" transform="translate(711.317 1288)">op::<tspan font-size="19" x="29.6667" y="0">Nlopt</tspan><tspan font-size="19" x="71.92" y="0">::</tspan>SolutionCallback<tspan font-size="19" x="207.587" y="0">()</tspan></text><path d="M54.5001 1210.5 1192.79 1210.5" stroke="#A5A5A5" stroke-linejoin="round" stroke-miterlimit="10" stroke-dasharray="4 3" fill="none" fill-rule="evenodd"/></g></svg>