<svg width="1054" height="236" xmlns="http://www.w3.org/2000/svg" xmlns:xlink="http://www.w3.org/1999/xlink" overflow="hidden"><defs><clipPath id="clip0"><rect x="113" y="322" width="1054" height="236"/></clipPath></defs><g clip-path="url(#clip0)" transform="translate(-113 -322)"><path d="M114.5 336.5C114.5 329.873 119.873 324.5 126.5 324.5L333.5 324.5C340.127 324.5 345.5 329.873 345.5 336.5L345.5 384.5C345.5 391.127 340.127 396.5 333.5 396.5L126.5 396.5C119.873 396.5 114.5 391.127 114.5 384.5Z" stroke="#41719C" stroke-width="1.33333" stroke-miterlimit="8" fill="#5B9BD5" fill-rule="evenodd"/><text fill="#FFFFFF" font-family="Calibri,Calibri_MSFontService,sans-serif" font-weight="400" font-size="19" transform="translate(137.972 366)">Functional Grad (rank 0)</text><path d="M371.5 336.5C371.5 329.873 376.873 324.5 383.5 324.5L590.5 324.5C597.127 324.5 602.5 329.873 602.5 336.5L602.5 384.5C602.5 391.127 597.127 396.5 590.5 396.5L383.5 396.5C376.873 396.5 371.5 391.127 371.5 384.5Z" stroke="#41719C" stroke-width="1.33333" stroke-miterlimit="8" fill="#5B9BD5" fill-rule="evenodd"/><text fill="#FFFFFF" font-family="Calibri,Calibri_MSFontService,sans-serif" font-weight="400" font-size="19" transform="translate(394.827 366)">Functional Grad (rank 1)</text><path d="M640.5 336.5C640.5 329.873 645.873 324.5 652.5 324.5L859.5 324.5C866.127 324.5 871.5 329.873 871.5 336.5L871.5 384.5C871.5 391.127 866.127 396.5 859.5 396.5L652.5 396.5C645.873 396.5 640.5 391.127 640.5 384.5Z" stroke="#41719C" stroke-width="1.33333" stroke-miterlimit="8" fill="#5B9BD5" fill-rule="evenodd"/><text fill="#FFFFFF" font-family="Calibri,Calibri_MSFontService,sans-serif" font-weight="400" font-size="19" transform="translate(663.642 366)">Functional Grad (rank 2)</text><path d="M935.5 336.5C935.5 329.873 940.873 324.5 947.5 324.5L1154.5 324.5C1161.13 324.5 1166.5 329.873 1166.5 336.5L1166.5 384.5C1166.5 391.127 1161.13 396.5 1154.5 396.5L947.5 396.5C940.873 396.5 935.5 391.127 935.5 384.5Z" stroke="#41719C" stroke-width="1.33333" stroke-miterlimit="8" fill="#5B9BD5" fill-rule="evenodd"/><text fill="#FFFFFF" font-family="Calibri,Calibri_MSFontService,sans-serif" font-weight="400" font-size="19" transform="translate(957.538 366)">Functional Grad (rank N)<tspan fill="#000000" font-size="19" x="-63.127" y="-1">…</tspan></text><path d="M114.5 496.667C114.5 489.947 119.947 484.5 126.667 484.5L333.333 484.5C340.053 484.5 345.5 489.947 345.5 496.667L345.5 545.333C345.5 552.053 340.053 557.5 333.333 557.5L126.667 557.5C119.947 557.5 114.5 552.053 114.5 545.333Z" stroke="#507E32" stroke-width="1.33333" stroke-miterlimit="8" fill="#70AD47" fill-rule="evenodd"/><text fill="#FFFFFF" font-family="Calibri,Calibri_MSFontService,sans-serif" font-weight="400" font-size="19" transform="translate(134.919 515)">Owned<tspan font-size="19" x="58.8333" y="0">variab</tspan><tspan font-size="19" x="105.727" y="0">les (rank 0)</tspan><tspan font-size="19" x="76.26" y="23">0 1 3</tspan></text><path d="M371.5 495.667C371.5 488.947 376.947 483.5 383.667 483.5L590.333 483.5C597.053 483.5 602.5 488.947 602.5 495.667L602.5 544.333C602.5 551.053 597.053 556.5 590.333 556.5L383.667 556.5C376.947 556.5 371.5 551.053 371.5 544.333Z" stroke="#507E32" stroke-width="1.33333" stroke-miterlimit="8" fill="#70AD47" fill-rule="evenodd"/><text fill="#FFFFFF" font-family="Calibri,Calibri_MSFontService,sans-serif" font-weight="400" font-size="19" transform="translate(391.774 514)">Owned<tspan font-size="19" x="58.8333" y="0">variab</tspan><tspan font-size="19" x="105.727" y="0">les (rank 1)</tspan><tspan font-size="19" x="76.26" y="23">4 5</tspan><tspan font-size="19" x="103.593" y="23">9</tspan></text><path d="M640.5 495.667C640.5 488.947 645.947 483.5 652.667 483.5L859.333 483.5C866.053 483.5 871.5 488.947 871.5 495.667L871.5 544.333C871.5 551.053 866.053 556.5 859.333 556.5L652.667 556.5C645.947 556.5 640.5 551.053 640.5 544.333Z" stroke="#507E32" stroke-width="1.33333" stroke-miterlimit="8" fill="#70AD47" fill-rule="evenodd"/><text fill="#FFFFFF" font-family="Calibri,Calibri_MSFontService,sans-serif" font-weight="400" font-size="19" transform="translate(660.589 514)">Owned<tspan font-size="19" x="58.8334" y="0">variab</tspan><tspan font-size="19" x="105.727" y="0">les (rank 2)</tspan><tspan font-size="19" x="83.0934" y="23">6</tspan><tspan font-size="19" x="96.76" y="23">7</tspan></text><path d="M935.5 495.667C935.5 488.947 940.947 483.5 947.667 483.5L1154.33 483.5C1161.05 483.5 1166.5 488.947 1166.5 495.667L1166.5 544.333C1166.5 551.053 1161.05 556.5 1154.33 556.5L947.667 556.5C940.947 556.5 935.5 551.053 935.5 544.333Z" stroke="#507E32" stroke-width="1.33333" stroke-miterlimit="8" fill="#70AD47" fill-rule="evenodd"/><text fill="#FFFFFF" font-family="Calibri,Calibri_MSFontService,sans-serif" font-weight="400" font-size="19" transform="translate(954.484 514)">Owned<tspan font-size="19" x="58.8333" y="0">variab</tspan><tspan font-size="19" x="105.727" y="0">les (rank N)</tspan><tspan font-size="19" x="93.5867" y="23">.</tspan><tspan fill="#000000" font-size="19" x="-60.0737" y="11">…</tspan></text><path d="M0.994172-0.107803 7.55622 60.4083 5.56788 60.6239-0.994172 0.107803ZM10.395 58.7593 7.28073 67.1439 2.44162 59.6218Z" fill="#4472C4" transform="matrix(-1 0 0 1 225.281 410)"/><path d="M483.978 408.789 496.897 468.74 494.941 469.161 482.022 409.211ZM499.548 466.804 497.323 475.467 491.728 468.49Z" fill="#4472C4"/><path d="M751.941 408.661 773.646 468.857 771.765 469.535 750.059 409.339ZM776.016 466.585 774.967 475.467 768.49 469.299Z" fill="#4472C4"/><path d="M0.269066-0.963122 229.48 63.0712 228.942 64.9974-0.269066 0.963122ZM229.002 59.823 235.631 65.828 226.85 67.528Z" fill="#4472C4" transform="matrix(-1 0 0 1 1053.63 410)"/><path d="M0.221387-0.975186 286.503 64.0164 286.06 65.9667-0.221387 0.975186ZM285.866 60.7956 292.782 66.4674 284.095 68.5971Z" fill="#4472C4" transform="matrix(-1 0 0 1 796.782 409)"/><path d="M0.0792433-0.996855 821.527 64.3028 821.369 66.2965-0.0792433 0.996855ZM820.437 61.2067 828.095 65.828 819.803 69.1815Z" fill="#4472C4" transform="matrix(-1 0 0 1 1054.1 410)"/><path d="M0.115576-0.993299 564.733 64.7033 564.502 66.6899-0.115576 0.993299ZM563.757 61.5695 571.241 66.4673 562.832 69.5159Z" fill="#4472C4" transform="matrix(-1 0 0 1 797.241 409)"/><text font-family="Calibri,Calibri_MSFontService,sans-serif" font-weight="400" font-size="24" transform="translate(365.382 444)">1<tspan font-size="24" x="278.671" y="25">9</tspan><tspan font-size="24" x="631.876" y="11">4,9</tspan><tspan font-size="24" x="536.929" y="-36">0</tspan></text></g></svg>