<svg width="1106" height="499" xmlns="http://www.w3.org/2000/svg" xmlns:xlink="http://www.w3.org/1999/xlink" overflow="hidden"><defs><clipPath id="clip0"><rect x="87" y="169" width="1106" height="499"/></clipPath></defs><g clip-path="url(#clip0)" transform="translate(-87 -169)"><path d="M114.5 183.501C114.5 176.873 119.873 171.5 126.501 171.5L1154.5 171.5C1161.13 171.5 1166.5 176.873 1166.5 183.501L1166.5 231.499C1166.5 238.127 1161.13 243.5 1154.5 243.5L126.501 243.5C119.873 243.5 114.5 238.127 114.5 231.499Z" stroke="#2F528F" stroke-width="1.33333" stroke-miterlimit="8" fill="#4472C4" fill-rule="evenodd"/><text fill="#FFFFFF" font-family="Calibri,Calibri_MSFontService,sans-serif" font-weight="400" font-size="24" transform="translate(127.479 215)">Optimizer variables</text><rect x="335.5" y="189.5" width="804" height="36" stroke="#BC8C00" stroke-width="1.33333" stroke-miterlimit="8" fill="#FFC000"/><text fill="#FFFFFF" font-family="Cambria Math,Cambria Math_MSFontService,sans-serif" font-weight="400" font-size="24" transform="translate(664.692 216)">0<tspan font-size="24" x="13.3334" y="0"> </tspan><tspan font-size="24" x="18.6667" y="0">1</tspan><tspan font-size="24" x="32.0001" y="0"> </tspan><tspan font-size="24" x="37.3334" y="0">3</tspan><tspan font-size="24" x="50.6667" y="0"> </tspan><tspan font-size="24" x="56.0001" y="0">4</tspan><tspan font-size="24" x="69.3334" y="0"> </tspan><tspan font-size="24" x="74.6667" y="0">5</tspan><tspan font-size="24" x="88.0001" y="0"> </tspan><tspan font-size="24" x="93.3334" y="0">6</tspan><tspan font-size="24" x="106.667" y="0"> </tspan><tspan font-size="24" x="112" y="0">7</tspan><tspan font-size="24" x="125.333" y="0"> </tspan><tspan font-size="24" x="130.667" y="0">9</tspan></text><path d="M99.5001 284.5C99.5001 281.186 102.186 278.5 105.5 278.5L351.5 278.5C354.814 278.5 357.5 281.186 357.5 284.5L357.5 308.5C357.5 311.814 354.814 314.5 351.5 314.5L105.5 314.5C102.186 314.5 99.5001 311.814 99.5001 308.5Z" stroke="#AE5A21" stroke-width="1.33333" stroke-miterlimit="8" fill="#ED7D31" fill-rule="evenodd"/><text fill="#FFFFFF" font-family="Cambria Math,Cambria Math_MSFontService,sans-serif" font-weight="400" font-size="24" transform="translate(202.56 305)">0<tspan font-size="24" x="13.3333" y="0"> </tspan><tspan font-size="24" x="18.6667" y="0">1</tspan><tspan font-size="24" x="32" y="0"> </tspan><tspan font-size="24" x="37.3333" y="0">3</tspan></text><path d="M378.5 283.5C378.5 280.186 381.186 277.5 384.5 277.5L629.5 277.5C632.814 277.5 635.5 280.186 635.5 283.5L635.5 307.5C635.5 310.814 632.814 313.5 629.5 313.5L384.5 313.5C381.186 313.5 378.5 310.814 378.5 307.5Z" stroke="#AE5A21" stroke-width="1.33333" stroke-miterlimit="8" fill="#ED7D31" fill-rule="evenodd"/><text fill="#FFFFFF" font-family="Cambria Math,Cambria Math_MSFontService,sans-serif" font-weight="400" font-size="24" transform="translate(469.019 304)">1<tspan font-size="24" x="13.3333" y="0"> </tspan><tspan font-size="24" x="18.6667" y="0">4</tspan><tspan font-size="24" x="32" y="0"> </tspan><tspan font-size="24" x="37.3333" y="0"> </tspan><tspan font-size="24" x="42.6667" y="0">5</tspan><tspan font-size="24" x="56" y="0"> </tspan><tspan font-size="24" x="61.3334" y="0">9</tspan></text><path d="M656.5 283.5C656.5 280.186 659.186 277.5 662.5 277.5L908.5 277.5C911.814 277.5 914.5 280.186 914.5 283.5L914.5 307.5C914.5 310.814 911.814 313.5 908.5 313.5L662.5 313.5C659.186 313.5 656.5 310.814 656.5 307.5Z" stroke="#AE5A21" stroke-width="1.33333" stroke-miterlimit="8" fill="#ED7D31" fill-rule="evenodd"/><text fill="#FFFFFF" font-family="Cambria Math,Cambria Math_MSFontService,sans-serif" font-weight="400" font-size="24" transform="translate(759.478 304)">6<tspan font-size="24" x="13.3334" y="0"> </tspan><tspan font-size="24" x="18.6667" y="0">7</tspan><tspan font-size="24" x="32" y="0"> </tspan><tspan font-size="24" x="37.3334" y="0">9</tspan></text><path d="M935.5 283.5C935.5 280.186 938.186 277.5 941.5 277.5L1186.5 277.5C1189.81 277.5 1192.5 280.186 1192.5 283.5L1192.5 307.5C1192.5 310.814 1189.81 313.5 1186.5 313.5L941.5 313.5C938.186 313.5 935.5 310.814 935.5 307.5Z" stroke="#AE5A21" stroke-width="1.33333" stroke-miterlimit="8" fill="#ED7D31" fill-rule="evenodd"/><text fill="#FFFFFF" font-family="Cambria Math,Cambria Math_MSFontService,sans-serif" font-weight="400" font-size="24" transform="translate(1037.94 304)">0<tspan font-size="24" x="13.3334" y="0"> </tspan><tspan font-size="24" x="18.6667" y="0">4</tspan><tspan font-size="24" x="32" y="0"> </tspan><tspan font-size="24" x="37.3334" y="0">9</tspan></text><path d="M114.5 415.001C114.5 407.545 120.544 401.5 128.001 401.5L1177 401.5C1184.46 401.5 1190.5 407.545 1190.5 415.001L1190.5 468.999C1190.5 476.456 1184.46 482.5 1177 482.5L128.001 482.5C120.544 482.5 114.5 476.456 114.5 468.999Z" stroke="#787878" stroke-width="1.33333" stroke-miterlimit="8" fill="#A5A5A5" fill-rule="evenodd"/><text fill="#FFFFFF" font-family="Calibri,Calibri_MSFontService,sans-serif" font-weight="400" font-size="24" transform="translate(493.015 449)">op::utility<tspan font-size="24" x="99.8333" y="0">registration</tspan><tspan font-size="24" x="217.207" y="0">procedur</tspan><tspan font-size="24" x="306.007" y="0">e</tspan></text><path d="M137.5 518.667C137.5 511.947 142.947 506.5 149.667 506.5L356.333 506.5C363.053 506.5 368.5 511.947 368.5 518.667L368.5 567.333C368.5 574.053 363.053 579.5 356.333 579.5L149.667 579.5C142.947 579.5 137.5 574.053 137.5 567.333Z" stroke="#507E32" stroke-width="1.33333" stroke-miterlimit="8" fill="#70AD47" fill-rule="evenodd"/><text fill="#FFFFFF" font-family="Calibri,Calibri_MSFontService,sans-serif" font-weight="400" font-size="19" transform="translate(158.001 537)">Owned<tspan font-size="19" x="58.8333" y="0">variab</tspan><tspan font-size="19" x="105.727" y="0">les (rank 0)</tspan><tspan font-size="19" x="76.26" y="23">0 1 3</tspan></text><path d="M394.5 518.667C394.5 511.947 399.947 506.5 406.667 506.5L613.333 506.5C620.053 506.5 625.5 511.947 625.5 518.667L625.5 567.333C625.5 574.053 620.053 579.5 613.333 579.5L406.667 579.5C399.947 579.5 394.5 574.053 394.5 567.333Z" stroke="#507E32" stroke-width="1.33333" stroke-miterlimit="8" fill="#70AD47" fill-rule="evenodd"/><text fill="#FFFFFF" font-family="Calibri,Calibri_MSFontService,sans-serif" font-weight="400" font-size="19" transform="translate(414.856 537)">Owned<tspan font-size="19" x="58.8333" y="0">variab</tspan><tspan font-size="19" x="105.727" y="0">les (rank 1)</tspan><tspan font-size="19" x="76.26" y="23">4 5</tspan><tspan font-size="19" x="103.593" y="23">9</tspan></text><path d="M663.5 518.667C663.5 511.947 668.947 506.5 675.667 506.5L882.333 506.5C889.053 506.5 894.5 511.947 894.5 518.667L894.5 567.333C894.5 574.053 889.053 579.5 882.333 579.5L675.667 579.5C668.947 579.5 663.5 574.053 663.5 567.333Z" stroke="#507E32" stroke-width="1.33333" stroke-miterlimit="8" fill="#70AD47" fill-rule="evenodd"/><text fill="#FFFFFF" font-family="Calibri,Calibri_MSFontService,sans-serif" font-weight="400" font-size="19" transform="translate(683.671 537)">Owned<tspan font-size="19" x="58.8334" y="0">variab</tspan><tspan font-size="19" x="105.727" y="0">les (rank 2)</tspan><tspan font-size="19" x="83.0933" y="23">6</tspan><tspan font-size="19" x="96.76" y="23">7</tspan></text><path d="M958.5 518.667C958.5 511.947 963.947 506.5 970.667 506.5L1177.33 506.5C1184.05 506.5 1189.5 511.947 1189.5 518.667L1189.5 567.333C1189.5 574.053 1184.05 579.5 1177.33 579.5L970.667 579.5C963.947 579.5 958.5 574.053 958.5 567.333Z" stroke="#507E32" stroke-width="1.33333" stroke-miterlimit="8" fill="#70AD47" fill-rule="evenodd"/><text fill="#FFFFFF" font-family="Calibri,Calibri_MSFontService,sans-serif" font-weight="400" font-size="19" transform="translate(977.566 537)">Owned<tspan font-size="19" x="58.8334" y="0">variab</tspan><tspan font-size="19" x="105.727" y="0">les (rank N)</tspan><tspan font-size="19" x="93.5867" y="23">.</tspan><tspan fill="#000000" font-size="19" x="-60.0737" y="11">…</tspan></text><path d="M137.5 606.667C137.5 599.947 142.947 594.5 149.667 594.5L356.333 594.5C363.053 594.5 368.5 599.947 368.5 606.667L368.5 655.333C368.5 662.053 363.053 667.5 356.333 667.5L149.667 667.5C142.947 667.5 137.5 662.053 137.5 655.333Z" stroke="#41719C" stroke-width="1.33333" stroke-miterlimit="8" fill="#5B9BD5" fill-rule="evenodd"/><text fill="#FFFFFF" font-family="Calibri,Calibri_MSFontService,sans-serif" font-weight="400" font-size="19" transform="translate(173.755 625)">RankCommunication<tspan font-size="19" x="49.6933" y="23">(rank 0)</tspan></text><path d="M394.5 606.5C394.5 599.873 399.873 594.5 406.5 594.5L613.5 594.5C620.127 594.5 625.5 599.873 625.5 606.5L625.5 654.5C625.5 661.127 620.127 666.5 613.5 666.5L406.5 666.5C399.873 666.5 394.5 661.127 394.5 654.5Z" stroke="#41719C" stroke-width="1.33333" stroke-miterlimit="8" fill="#5B9BD5" fill-rule="evenodd"/><text fill="#FFFFFF" font-family="Calibri,Calibri_MSFontService,sans-serif" font-weight="400" font-size="19" transform="translate(430.609 624)">RankCommunication<tspan font-size="19" x="49.6933" y="23">(rank 1)</tspan></text><path d="M663.5 606.5C663.5 599.873 668.873 594.5 675.5 594.5L882.5 594.5C889.127 594.5 894.5 599.873 894.5 606.5L894.5 654.5C894.5 661.127 889.127 666.5 882.5 666.5L675.5 666.5C668.873 666.5 663.5 661.127 663.5 654.5Z" stroke="#41719C" stroke-width="1.33333" stroke-miterlimit="8" fill="#5B9BD5" fill-rule="evenodd"/><text fill="#FFFFFF" font-family="Calibri,Calibri_MSFontService,sans-serif" font-weight="400" font-size="19" transform="translate(699.424 624)">RankCommunication<tspan font-size="19" x="49.6933" y="23">(rank 2)</tspan></text><path d="M958.5 606.5C958.5 599.873 963.873 594.5 970.5 594.5L1177.5 594.5C1184.13 594.5 1189.5 599.873 1189.5 606.5L1189.5 654.5C1189.5 661.127 1184.13 666.5 1177.5 666.5L970.5 666.5C963.873 666.5 958.5 661.127 958.5 654.5Z" stroke="#41719C" stroke-width="1.33333" stroke-miterlimit="8" fill="#5B9BD5" fill-rule="evenodd"/><text fill="#FFFFFF" font-family="Calibri,Calibri_MSFontService,sans-serif" font-weight="400" font-size="19" transform="translate(994.57 624)">RankCommunication<tspan font-size="19" x="48.4467" y="23">(rank N)</tspan><tspan fill="#000000" font-size="19" x="-77.0771" y="12">…</tspan></text><path d="M253.833 342.5 253.833 379.872 253.167 379.872 253.167 342.5ZM257.5 378.539 253.5 386.539 249.5 378.539Z" fill="#4472C4"/><path d="M510.833 342.5 510.833 381.483 510.167 381.483 510.167 342.5ZM514.5 380.149 510.5 388.149 506.5 380.149Z" fill="#4472C4"/><path d="M781.833 342.5 781.833 379.872 781.167 379.872 781.167 342.5ZM785.5 378.539 781.5 386.539 777.5 378.539Z" fill="#4472C4"/><path d="M1073.83 342.5 1073.83 379.872 1073.17 379.872 1073.17 342.5ZM1077.5 378.539 1073.5 386.539 1069.5 378.539Z" fill="#4472C4"/></g></svg>